PathFileType	4	(X/Y/Z)	9_2_17_p0_0-233_filt_butterworth.trc
DataRate	CameraRate	NumFrames	NumMarkers	Units	OrigDataRate	OrigDataStartFrame	OrigNumFrames
57.0	57.0	5	27	m	57.0	145	233
Frame#	Time	RHip			RKnee			RAnkle			RBigToe			RSmallToe			RHeel			LHip			LKnee			LAnkle			LBigToe			LSmallToe			LHeel			Neck			Head			Nose			RShoulder			RElbow			RWrist			RThumb			RIndex			RPinky			LShoulder			LElbow			LWrist			LThumb			LIndex			LPinky			
		X1	Y1	Z1	X2	Y2	Z2	X3	Y3	Z3	X4	Y4	Z4	X5	Y5	Z5	X6	Y6	Z6	X7	Y7	Z7	X8	Y8	Z8	X9	Y9	Z9	X10	Y10	Z10	X11	Y11	Z11	X12	Y12	Z12	X13	Y13	Z13	X14	Y14	Z14	X15	Y15	Z15	X16	Y16	Z16	X17	Y17	Z17	X18	Y18	Z18	X19	Y19	Z19	X20	Y20	Z20	X21	Y21	Z21	X22	Y22	Z22	X23	Y23	Z23	X24	Y24	Z24	X25	Y25	Z25	X26	Y26	Z26	X27	Y27	Z27	
145	2.543859649122807	0.29332390212261383	0.4857397348641539	1.0276264133416824	0.2905897602026015	0.5083829615720469	1.449214240954802	0.29571835991071965	0.6020790418493075	1.8683144531045128	0.2758091514442297	0.43489917996555283	1.8950706104301975	0.3324976327808068	0.4531791662592075	1.8881936484739306	0.27292653805101913	0.6940123344735679	1.939379360410506	0.08377226342422817	0.4980546982181152	1.0471895529075734	0.08258329684315054	0.5315957812765033	1.469886421969786	0.08706330111468098	0.5969571723390421	1.8719172112240288	0.10514597198304544	0.46404373991717707	1.9125837697156107	0.05257553472113191	0.45666715921294665	1.882425880730133	0.09833222581435962	0.6145607267492977	1.9062517649865751	0.1905046967982039	0.4687449363287952	0.5114891915889817	0.18899013955054744	0.4148203118173608	0.2606346539640502	0.19625862591373902	0.2952843895602409	0.39157449534241723	0.32269234789006	0.454472488406137	0.589939086051469	0.35692558846422956	0.40869587656163664	0.8511940172620154	0.24277308840566925	0.3746477079510365	1.0329120446822904	0.16742084674843075	0.3459367560397834	1.1307888672458055	0.16321220285555865	0.36869573362295144	1.1421118364304328	0.19148824995048896	0.33802697727353936	1.1348638256241745	0.05719129578039442	0.46683057055668153	0.5938158709826403	0.019579039801479965	0.4170635941503762	0.8545989909477912	0.13790079012234926	0.35479019644866744	1.0320279318663417	0.21624594783177437	0.31591307352026293	1.1051490522790044	0.20964142894769422	0.3168374496324009	1.1185762936213812	0.16496178338396925	0.359778599814163	1.152568326275738
146	2.56140350877193	0.2934730874503074	0.48624868013454525	1.0268642228262217	0.2899031665381816	0.5083589397620802	1.4492249388440142	0.2964747432028569	0.6033589338154519	1.8697012141439855	0.2758251369305363	0.4349199259560636	1.8950837184081835	0.33227466599467237	0.4531849468390698	1.888189979122899	0.27302690733994683	0.6941587191294663	1.9392767964908706	0.0838382438665319	0.4989976911506642	1.0466068402391973	0.08181001273339977	0.5319306377098709	1.4713046568527695	0.08712587452979546	0.5967645455699074	1.8723785712309224	0.10518624217057153	0.464260434591114	1.9127171667375158	0.052610414073730336	0.4564710459118872	1.882772916750718	0.09698790315270339	0.6128398617838435	1.906991103304024	0.18916940199958748	0.46864702188460394	0.511473911625489	0.18784377193774793	0.4180879029022945	0.2606894586160596	0.19588609120784323	0.29508141979310154	0.39158637070430957	0.3227797256195993	0.45428206539704324	0.5899284479840134	0.3563820434348225	0.4081866235102039	0.8522857038226423	0.24190487665762006	0.3739724551624097	1.0328004105069593	0.162589066171056	0.35364357232570126	1.1331942301982574	0.16105408938365925	0.3729607387621726	1.1436663223410943	0.1901119070923252	0.3395607824007992	1.1366086500142818	0.0571740676604394	0.46689856310905065	0.5938381190616661	0.01971390092979226	0.4168203205635504	0.8545819537285566	0.13791605871544793	0.35485666814443273	1.0320292771324948	0.21489727425372424	0.3159065188307009	1.1051426422447816	0.20853691782945072	0.31719753590340605	1.118554573066954	0.16383839053251958	0.3629681513089633	1.1525419391566192
147	2.5789473684210527	0.2932849577066444	0.48627277201910124	1.024185053281323	0.2886668139809511	0.5077131494262835	1.4490837449794827	0.29736193614300055	0.6019551688754659	1.8728223850244288	0.275846158027843	0.4349672960589898	1.8951068830392825	0.33221295271450363	0.45436669469281743	1.888828095334601	0.273019221254078	0.6941629229509981	1.9389791404967744	0.08408165534666036	0.4991252692160699	1.0441546486702347	0.08168624276024182	0.5332883856083197	1.4717121261880846	0.08711617521590603	0.5967614347508299	1.87246603209043	0.10511659991164782	0.4639828602649557	1.9125943366766576	0.05258957067038774	0.45646983875305236	1.8828787853110696	0.09634574347391353	0.6120039126735191	1.9073536348396143	0.18820856358227706	0.46869617325864343	0.5115092586756934	0.18750173220870572	0.4192156450465133	0.260779465872746	0.19488670583782813	0.2944871029056775	0.3916140334481938	0.3223894685728916	0.4557046292343997	0.5901132852368486	0.3550589402632888	0.4078147230571178	0.8536952006207124	0.2420055716859462	0.3739359720292082	1.0327614224749464	0.15877695667796055	0.3627443758482437	1.1359127850239146	0.15919738699127917	0.3758138698229835	1.144611805272315	0.1894633277051106	0.33963419084618185	1.1371161957896143	0.05714979808073395	0.46696584709147815	0.5938594789467474	0.02009066276055503	0.4180699196257183	0.8548378519363298	0.1381856412796101	0.3550024829368197	1.0320454880807388	0.2129374769648112	0.3172142650496778	1.1051808107730263	0.2079567673174167	0.3175262175564614	1.1185266850549869	0.1621606827821433	0.3676359418414209	1.1526687916908707
148	2.5964912280701755	0.2923891316756646	0.48589911152776843	1.021015811279838	0.287259201342646	0.5066084094723072	1.4488945001865285	0.29831230739101133	0.5992247950944983	1.87578561858113	0.27586289123975727	0.4350260380885518	1.8951672482401463	0.3330177216889065	0.45778236776311204	1.890663622457098	0.273033942936773	0.6942781002730642	1.9388067386210153	0.08446994730895101	0.4989462474008019	1.0411091820235765	0.08199192835840052	0.5366432700389739	1.4715546788405152	0.08702836362494638	0.5969559721378039	1.8721245323817666	0.10481038946297895	0.4625348393474461	1.9118462883271161	0.05257929599763459	0.4566439304736516	1.8831254295106983	0.09695792816986026	0.6127726117685817	1.9069983979530634	0.18786582033577773	0.4687577177750974	0.5116062840187969	0.18764322514926046	0.41908808080787974	0.26080521597223866	0.193546655680809	0.2937165290569879	0.391647631729424	0.3212710982830634	0.4595933524136744	0.5905723649326733	0.3533899583515841	0.4077017257738273	0.8547346271504869	0.24234296763153051	0.3745059941116309	1.0328984229030025	0.15768998909064616	0.370422456784567	1.138055163990994	0.15821287645013624	0.37694424922654324	1.1440282912696302	0.18945239135724196	0.3393261385469101	1.1360706287657045	0.057111834880308784	0.4670458237161347	0.5938840846318972	0.01920622264287805	0.42179196542413255	0.855598870813727	0.13873862938655634	0.3551998324687364	1.0320776118625254	0.2112582221741101	0.32041792072806474	1.105237712142068	0.20768740347782758	0.31685020479491754	1.1184083824375346	0.1607808627804152	0.37148682225614305	1.1528233600116047
149	2.6140350877192984	0.29100286001021897	0.48537820202153525	1.0182653160755937	0.28629238283044917	0.505624695132284	1.4487647517317492	0.29947656376568543	0.5971033926367928	1.8758280584342468	0.27586952443781004	0.43504968426794577	1.8952734208617912	0.33437804506049507	0.4625002481430602	1.8932286120639952	0.2731607699658189	0.6945839834980171	1.9393832604367045	0.08476615079757979	0.49855745076257585	1.0382709558178194	0.08276043998531771	0.5411540403600947	1.4713727751687	0.08686237220215746	0.5974158877258062	1.8712068685617762	0.10408762591848693	0.4589665558507949	1.9099699696478345	0.05260704528095482	0.4570443840806552	1.883564435532452	0.0982968585701446	0.6144936793030641	1.906184574325865	0.18785412079623892	0.4686794266876172	0.511637500667817	0.18775242646002227	0.41874911482279165	0.2605402473029177	0.19254297302101864	0.29320016829638745	0.3916726305720602	0.31977098460896736	0.46477233517434013	0.5911634833806251	0.3521976912774812	0.4077497703292964	0.8551082192398559	0.24250489405120448	0.37561928185564186	1.0334023252676985	0.15826424108763187	0.37455029711252585	1.139151895572483	0.15760842080283974	0.37817685338428486	1.1422137120219507	0.189617476841407	0.3391282394625405	1.1344652607325822	0.05707253851443794	0.4671358873761927	0.59390904119558	0.017014169836250835	0.4265584521320923	0.8565895886185336	0.1392032999978683	0.3553290317621191	1.0321012500807467	0.21025911331409367	0.32448286040316876	1.1054850581759983	0.20752917416470007	0.3150817929828601	1.118338018516003	0.16013980962658608	0.37333011930019355	1.1528880982580678
